<?xml version="1.0" encoding="UTF-8" standalone="no"?>
<!-- Created with Inkscape (http://www.inkscape.org/) -->

<svg
   xmlns:dc="http://purl.org/dc/elements/1.1/"
   xmlns:cc="http://creativecommons.org/ns#"
   xmlns:rdf="http://www.w3.org/1999/02/22-rdf-syntax-ns#"
   xmlns:svg="http://www.w3.org/2000/svg"
   xmlns="http://www.w3.org/2000/svg"
   version="1.1"
   width="512"
   height="512"
   viewBox="0 0 512 512"
   id="Layer_5"
   xml:space="preserve"><metadata
     id="metadata9"><rdf:RDF><cc:Work
         rdf:about=""><dc:format>image/svg+xml</dc:format><dc:type
           rdf:resource="http://purl.org/dc/dcmitype/StillImage" /><dc:title></dc:title></cc:Work></rdf:RDF></metadata><defs
     id="defs7" /><path
     d="m 255.90625,64 c 0,0 -99.49725,-0.01175 -171.15625,5.28125 -10.01,1.219 -33.29425,5.907 -52.78125,26.75 C 16.60675,111.89125 5.125,151.375 5.125,151.375 5.125,151.375 0,185.7265 0,228.0625 L 0,283.75 c 0,42.335 5.125,76.65625 5.125,76.65625 0,0 11.48175,39.71875 26.84375,55.59375 19.487,20.844 46.5455,24.4925 57.9375,26.6875 39.17,3.852 155.17825,5.141 165.28125,5.25 0.266,0.015 0.51525,0.0625 0.78125,0.0625 8.845,0 16.03125,-7.156 16.03125,-16 0,-8.828 -7.18625,-16 -16.03125,-16 0,0 -122.198,-1.09325 -156.125,-4.40625 -9.439,-1.796 -30.623,-1.24275 -46.75,-18.46875 -12.705,-13.11 -16.883,-42.875 -16.875,-42.875 0,0 -4.21875,-34.9775 -4.21875,-69.9375 L 32,231.5 c 0,-34.96 4.21075,-69.9375 4.21875,-69.9375 0,0 4.17,-29.762 16.875,-42.875 C 69.22175,101.4805 87.2715,101.379 95.5625,100.375 154.8995,96 256,96.03125 256,96.03125 c 0,0 101.1005,-0.03125 160.4375,4.34375 8.29,1.004 26.33275,1.1055 42.46875,18.3125 12.721,13.113 16.84375,42.875 16.84375,42.875 0,0 4.25,34.9775 4.25,69.9375 l 0,48.8125 c 0,34.96 -4.25,69.9375 -4.25,69.9375 0,0 -4.12275,29.766 -16.84375,42.875 -16.136,17.225 -34.17875,17.3045 -42.46875,18.3125 -0.524,0.039 -1.11725,0.086 -1.65625,0.125 l 0.0312,0.15625 c -3.673,0.266 -7.34325,1.6175 -10.15625,4.4375 -6.212,6.187 -6.212,16.2495 0,22.4375 3.408,3.422 8.03,4.76525 12.5,4.40625 l 0,0.15625 c 3.391,-0.211 6.7805,-0.4375 10.0625,-0.6875 10.017,-1.218 33.3485,-5.62475 52.8125,-26.46875 15.361,-15.875 26.84375,-55.59375 26.84375,-55.59375 0,0 5.125,-34.32125 5.125,-76.65625 l 0,-55.6875 c 0,-42.336 -5.125,-76.6875 -5.125,-76.6875 0,0 -11.48275,-39.48475 -26.84375,-55.34375 -19.464,-20.843 -42.7955,-25.531 -52.8125,-26.75 C 355.57575,63.98825 256.125,64 256.125,64 l -0.21875,0 z m -47.34375,96 c -17.979,0 -32.59375,14.5865 -32.59375,32.5625 l 0,111.40625 0,0.0312 c 0,8.843 7.155,16 16,16 8.829,0 16.03125,-7.157 16.03125,-16 0,-0.055 -0.0312,-0.10125 -0.0312,-0.15625 l 0.125,0 -0.0312,-99.03125 c 0.235,-4.18 3.6635,-7.53125 7.9375,-7.53125 1.274,0 2.42125,0.28875 3.53125,0.84375 L 315.0626,249.1562 C 317.3845,250.53925 319,253.094 319,256 c 0,3.176 -1.85825,5.92975 -4.53125,7.21875 -0.078,0.039 0.078,0.0548 0.125,0.0937 l -81.625,43.53125 0,0.0312 c -5.025,2.639 -8.46875,7.84425 -8.46875,13.90625 0,8.695 7.053,15.75 15.75,15.75 2.962,0 5.6945,-0.8745 8.0625,-2.3125 l 0.15625,-0.0625 c 0.211,-0.141 0.43825,-0.26525 0.65625,-0.40625 l 87.53125,-50.4375 c 2.118,-1.305 4.13175,-2.82825 5.96875,-4.65625 12.502,-12.5 12.502,-32.77725 0,-45.28125 -1.993,-1.992 -4.13275,-3.60575 -6.46875,-4.96875 l -110.375,-63.59375 c -0.164,-0.071 -0.2425,-0.02 -0.4375,-0.125 C 220.44475,161.7265 214.7115,160 208.5625,160 z M 320,416 c -8.845,0 -16,7.172 -16,16 0,8.844 7.155,16 16,16 8.845,0 16,-7.156 16,-16 0,-8.828 -7.155,-16 -16,-16 z"
     id="path3" /></svg>