<?xml version="1.0" encoding="UTF-8" standalone="no"?>
<!-- Created with Inkscape (http://www.inkscape.org/) -->
<svg xmlns:rdf="http://www.w3.org/1999/02/22-rdf-syntax-ns#" xmlns="http://www.w3.org/2000/svg" height="128" width="128" version="1.1" xmlns:cc="http://creativecommons.org/ns#" xmlns:dc="http://purl.org/dc/elements/1.1/">
 <metadata>
  <rdf:RDF>
   <cc:Work rdf:about="">
    <dc:format>image/svg+xml</dc:format>
    <dc:type rdf:resource="http://purl.org/dc/dcmitype/StillImage"/>
    <dc:title/>
   </cc:Work>
  </rdf:RDF>
 </metadata>
 <g transform="matrix(8.2211789,0,0,-8.0210552,125.44509,97.608221)">
  <path fill-rule="nonzero" fill="#231f20" d="m0,0c-0.467,0.729-2.037,1.182-3.59,1.829-1.554,0.648-1.922,0.872-1.922,0.872l-0.014,1.49s0.582,0.448,0.762,1.85c0.364-0.105,0.746,0.543,0.767,0.885,0.02,0.329-0.05,1.242-0.494,1.15,0.09,0.688,0.156,1.306,0.124,1.633-0.115,1.197-1.294,2.46-3.107,2.46-1.812,0-2.991-1.263-3.107-2.46-0.032-0.327,0.034-0.945,0.124-1.633-0.443,0.092-0.514-0.821-0.494-1.15,0.021-0.342,0.403-0.99,0.767-0.885,0.181-1.402,0.763-1.85,0.763-1.85l-0.015-1.49s-0.368-0.224-1.921-0.872c-1.554-0.647-3.123-1.1-3.591-1.829-0.419-0.652-0.293-3.789-0.293-3.789h15.534s0.126,3.137-0.293,3.789"/>
 </g>
</svg>
